<?xml version="1.0" encoding="UTF-8"?>
<svg xmlns="http://www.w3.org/2000/svg" viewBox="0 0 720 360" width="720" height="360" role="img" aria-labelledby="t">
<title id="t">Accuracy–FNR scatter for thirteen encoders</title>
<rect width="100%" height="100%" fill="#fffdf8"/>
<text x="24" y="28" font-family="IBM Plex Sans, sans-serif" font-size="14" fill="#57534e">BigEarthNet α = 0.05 · FNR under shift vs in-distribution mAP · Spearman ρ = +0.32 (p = 0.28)</text>
<line x1="80" y1="300" x2="680" y2="300" stroke="#d6d3d1"/>
<line x1="80" y1="48" x2="80" y2="300" stroke="#d6d3d1"/>
<text x="380" y="332" text-anchor="middle" font-family="IBM Plex Sans, sans-serif" font-size="12" fill="#57534e">mAP (in-distribution)</text>
<text x="20" y="180" transform="rotate(-90 20 180)" font-family="IBM Plex Sans, sans-serif" font-size="12" fill="#57534e">FNR under shift</text>
<circle cx="113.60000000000002" cy="286" r="7" fill="#009E73" stroke="#1c1917"/><circle cx="189.2000000000001" cy="231.39999999999998" r="7" fill="#E69F00" stroke="#1c1917"/><circle cx="309.6" cy="221.60000000000002" r="7" fill="#0072B2" stroke="#1c1917"/><polygon points="374.0000000000001,216.4 381.0000000000001,230.4 367.0000000000001,230.4" fill="none" stroke="#57534e" stroke-width="1.6"/><polygon points="374.0000000000001,161.8 381.0000000000001,175.8 367.0000000000001,175.8" fill="none" stroke="#57534e" stroke-width="1.6"/><polygon points="418.8000000000001,223.39999999999998 425.8000000000001,237.39999999999998 411.8000000000001,237.39999999999998" fill="none" stroke="#57534e" stroke-width="1.6"/><polygon points="427.20000000000016,205.2 434.20000000000016,219.2 420.20000000000016,219.2" fill="none" stroke="#57534e" stroke-width="1.6"/><polygon points="438.40000000000015,132.39999999999998 445.40000000000015,146.39999999999998 431.40000000000015,146.39999999999998" fill="none" stroke="#57534e" stroke-width="1.6"/><circle cx="444.00000000000017" cy="229.99999999999997" r="7" fill="#CC79A7" stroke="#1c1917"/><polygon points="444.00000000000017,243 451.00000000000017,257 437.00000000000017,257" fill="none" stroke="#57534e" stroke-width="1.6"/><polygon points="446.8000000000002,135.2 453.8000000000002,149.2 439.8000000000002,149.2" fill="none" stroke="#57534e" stroke-width="1.6"/><circle cx="469.2000000000002" cy="200.6" r="7" fill="#D55E00" stroke="#1c1917"/><polygon points="533.5999999999999,220.59999999999997 540.5999999999999,234.59999999999997 526.5999999999999,234.59999999999997" fill="none" stroke="#57534e" stroke-width="1.6"/>
<circle cx="500" cy="48" r="5" fill="#0072B2" stroke="#1c1917"/><text x="512" y="52" font-family="IBM Plex Sans, sans-serif" font-size="12" fill="#1c1917">original five</text>
<polygon points="620,42 627,56 613,56" fill="none" stroke="#57534e"/><text x="634" y="52" font-family="IBM Plex Sans, sans-serif" font-size="12" fill="#1c1917">added eight</text>
<text x="24" y="352" font-family="IBM Plex Sans, sans-serif" font-size="12" fill="#57534e">The five-encoder inversion (ρ = +0.90) regresses toward zero at n = 13. No trend line: the correlation is not significant.</text>
</svg>
